<?xml version="1.0" encoding="UTF-8" standalone="no"?>
<!-- Created with Inkscape (http://www.inkscape.org/) -->

<svg
   xmlns:dc="http://purl.org/dc/elements/1.1/"
   xmlns:cc="http://creativecommons.org/ns#"
   xmlns:rdf="http://www.w3.org/1999/02/22-rdf-syntax-ns#"
   xmlns:svg="http://www.w3.org/2000/svg"
   xmlns="http://www.w3.org/2000/svg"
   xmlns:sodipodi="http://sodipodi.sourceforge.net/DTD/sodipodi-0.dtd"
   xmlns:inkscape="http://www.inkscape.org/namespaces/inkscape"
   width="32.700699mm"
   height="31.457634mm"
   viewBox="0 0 32.700699 31.457634"
   version="1.1"
   id="svg32064"
   inkscape:version="0.92.2 2405546, 2018-03-11"
   sodipodi:docname="hammer.svg">
  <defs
     id="defs32058" />
  <sodipodi:namedview
     id="base"
     pagecolor="#ffffff"
     bordercolor="#666666"
     borderopacity="1.0"
     inkscape:pageopacity="0.0"
     inkscape:pageshadow="2"
     inkscape:zoom="3.959798"
     inkscape:cx="103.03739"
     inkscape:cy="59.465682"
     inkscape:document-units="mm"
     inkscape:current-layer="layer1"
     showgrid="false"
     fit-margin-top="0"
     fit-margin-left="0"
     fit-margin-right="0"
     fit-margin-bottom="0"
     inkscape:window-width="1920"
     inkscape:window-height="1038"
     inkscape:window-x="1920"
     inkscape:window-y="0"
     inkscape:window-maximized="1" />
  <metadata
     id="metadata32061">
    <rdf:RDF>
      <cc:Work
         rdf:about="">
        <dc:format>image/svg+xml</dc:format>
        <dc:type
           rdf:resource="http://purl.org/dc/dcmitype/StillImage" />
        <dc:title></dc:title>
      </cc:Work>
    </rdf:RDF>
  </metadata>
  <g
     inkscape:label="Layer 1"
     inkscape:groupmode="layer"
     id="layer1"
     transform="translate(200.04678,-37.854517)">
    <g
       id="g36554">
      <path
         id="path27475"
         d="m -184.22673,65.298422 c 0.27546,-0.373062 0.42436,-0.822589 0.42436,-1.295003 0,-1.205309 -0.98094,-2.185961 -2.18675,-2.185961 h -10.62135 c -0.58439,0 -1.13352,0.227357 -1.54633,0.640133 -0.413,0.412724 -0.64043,0.961655 -0.64043,1.545828 0,0.484055 0.15845,0.931466 0.42581,1.294209 -0.99488,0.522817 -1.67536,1.565805 -1.67536,2.765425 v 0.624417 c 0,0.345017 0.27979,0.624681 0.62481,0.624681 h 16.24434 c 0.34502,0 0.62481,-0.279664 0.62481,-0.624681 v -0.624417 c 0,-1.199091 -0.67979,-2.24155 -1.67391,-2.764631 z m -13.04653,-1.957678 c 0.17688,-0.176874 0.4123,-0.274241 0.66279,-0.274241 h 10.62135 c 0.51676,0 0.93713,0.420264 0.93713,0.936784 0,0.250454 -0.0975,0.485775 -0.2744,0.662516 -0.1769,0.177007 -0.41233,0.274373 -0.66281,0.274373 h -10.62127 c -0.51676,0 -0.93714,-0.420423 -0.93714,-0.93681 0,-0.250401 0.0974,-0.485748 0.27435,-0.662622 z m -1.52397,4.722309 c 0,-1.033197 0.84087,-1.873779 1.87436,-1.873779 h 11.24614 c 1.03349,0 1.87436,0.840582 1.87436,1.873779 z"
         style="fill:#fcfcfc;stroke-width:0.26458332"
         inkscape:connector-curvature="0" />
      <path
         id="path27477"
         d="m -167.63532,62.962151 c -0.19473,-0.529351 -2.10396,-1.575752 -2.10396,-1.575752 0,0 -1.21524,-0.799148 -3.28798,-0.4259 l 0.37359,-0.373248 c 0.19526,-0.194998 0.19553,-0.511413 2.6e-4,-0.706649 l -2.6e-4,-3.7e-4 -0.70697,-0.706517 c 0.19527,-0.19513 0.19527,-0.511413 0,-0.706517 l -9.18956,-9.18628 3.53491,-3.533114 c 0.012,-0.01601 0.023,-0.03268 0.033,-0.04998 0.01,-0.01199 0.024,-0.01897 0.0325,-0.03196 l 1.39058,-2.143548 c 0.12827,-0.197803 0.10078,-0.458391 -0.066,-0.625079 l -4.89849,-4.896691 c -0.16688,-0.166512 -0.42749,-0.193806 -0.62529,-0.06546 l -2.14435,1.389558 c -0.0135,0.0085 -0.0205,0.02348 -0.033,0.03348 -0.0175,0.0096 -0.0342,0.02042 -0.05,0.03248 l -3.53441,3.533118 -0.70728,-0.70702 c -0.19519,-0.195077 -0.51157,-0.195077 -0.70678,0 l -2.82761,2.82657 c -0.19513,0.195131 -0.19513,0.511414 0,0.706517 l 0.70726,0.70702 -3.5329,3.531129 c -0.0122,0.01572 -0.0231,0.03241 -0.0325,0.04995 -0.01,0.01199 -0.025,0.019 -0.0335,0.03249 l -1.39058,2.143549 c -0.12828,0.197802 -0.10078,0.458364 0.066,0.625078 l 4.90148,4.89667 c 0.16677,0.166714 0.42744,0.194178 0.62532,0.06596 l 2.14384,-1.389566 c 0.0135,-0.0085 0.0205,-0.02347 0.0325,-0.03347 0.0174,-0.0096 0.0342,-0.02043 0.05,-0.03249 l 3.53491,-3.533087 9.18565,9.187762 c 0.19518,0.195051 0.5116,0.195051 0.70678,0 l 0.70628,0.707019 c 0.19505,0.195236 0.5116,0.195448 0.70691,3.71e-4 l 3.7e-4,-3.71e-4 0.62336,-0.587163 c 0.10533,0.226219 0.26646,0.628703 0.39688,0.841481 0.39372,0.642699 1.10095,1.141016 1.75342,1.455235 0,0 1.05833,0.396875 2.26165,0.529166 0.34952,0.03837 1.14433,0.132292 1.5875,0 0.38418,-0.132291 0.43154,-0.185737 0.64876,-0.396875 0.36328,-0.685403 0,-1.346861 -0.13229,-1.5875 z m -15.31175,-23.970779 4.32916,4.327081 -0.83423,1.286113 -4.77954,-4.779256 z m -7.02533,4.283107 0.35341,0.353748 -2.12035,2.119577 -0.3534,-0.353272 z m -2.07684,13.469885 -4.32867,-4.327076 0.83373,-1.284128 4.78153,4.779248 z m 2.07684,-1.456029 -4.94847,-4.94665 9.89695,-9.893297 4.94845,4.946647 z m 6.21557,-1.560433 -1.62049,-1.620414 1.62049,-1.620388 z m 1.9994,1.998636 -0.9997,-0.999331 v -4.239631 l 0.9997,0.999332 z m 1.99938,1.998663 -0.9997,-0.999332 v -4.23963 l 0.9997,0.999331 z m 1.99938,1.998636 -0.99971,-0.999332 v -4.23963 l 0.99971,0.999331 z m 1.21711,1.216686 -0.21744,-0.217355 v -4.239631 l 2.33828,2.336906 z m 1.41356,0.70702 -0.35288,-0.353775 1.41357,-1.413033 0.35337,0.352742 z m 6.79762,2.505207 c -0.0124,0.01151 -0.14102,0.132292 -0.62785,0.132292 -0.52917,0 -1.32292,-0.02559 -2.91042,-0.654632 -0.91705,-0.396875 -1.26286,-0.969619 -1.67481,-1.815492 1.39832,-0.167375 2.19207,-0.167375 3.10012,0.276013 0.70406,0.343959 2.11084,1.157552 2.25663,1.539479 0.082,0.249819 -0.0114,0.390048 -0.14367,0.52234 z"
         style="fill:#fcfcfc;stroke-width:0.26458332"
         inkscape:connector-curvature="0" />
      <path
         id="path27479"
         d="m -184.26197,43.221562 c -0.18352,-0.0689 -0.39045,-0.02424 -0.52909,0.1143 l -2.47422,2.472823 -0.70679,-0.706517 c -0.19507,-0.195263 -0.51159,-0.195448 -0.70691,-3.71e-4 -0.0506,0.05051 -0.0898,0.111284 -0.11483,0.17825 l -2.12034,5.652664 c -0.0971,0.25834 0.0337,0.546444 0.29215,0.643441 0.18351,0.0689 0.39044,0.02423 0.52909,-0.1143 l 2.47422,-2.472823 0.70678,0.706517 c 0.19508,0.195236 0.5116,0.195421 0.70692,3.71e-4 0.0506,-0.05051 0.0898,-0.111284 0.11485,-0.17825 l 2.12032,-5.652664 c 0.0971,-0.25834 -0.0337,-0.546392 -0.29215,-0.643441 z m -2.48947,5.220838 -0.51136,-0.511651 c -0.19518,-0.195051 -0.51157,-0.195051 -0.70678,0 l -1.19613,1.195678 1.03569,-2.768626 0.51133,0.510672 c 0.19521,0.195051 0.5116,0.195051 0.70678,0 l 1.19613,-1.195202 z"
         style="fill:#fcfcfc;stroke-width:0.26458332"
         inkscape:connector-curvature="0" />
    </g>
  </g>
</svg>
