<svg xmlns="http://www.w3.org/2000/svg" viewBox="0 0 243.7 50.6">
    <path fill="#ffffff" d="M234.4 18.3l2-2.7 1-1 1.1-.8 1.2-.6 1.2-.2q1.3 0 2 .8.8.7.8 2.1 0 .9-.2 1.7l-.5 1.9h-.7q-.2-.8-.7-1.3-.6-.5-1.6-.5-.8 0-1.6.3-.7.2-1.4.7l-1.4.9-1.2 1v17l-.6.8q-.3.4-1.1.7-.8.3-2 .3-1.4 0-2.2-.3-.7-.3-1.1-.7-.4-.5-.5-1l-.1-.6V17.4q0-.7-.4-1.3-.3-.5-1.1-.5l-.8.1-.6.5-.5-.7 1.2-.9 1.6-.8q.8-.4 1.8-.6l2-.2q1 0 1.8.3t1.3.7q.5.5.7 1l.4 1.2.2 1.2v.9zm-36.6 7.9q0-3.3 1-5.8.9-2.4 2.5-4.1 1.6-1.7 3.7-2.5 2-.8 4.4-.8 2.3 0 4.4.8 2.1.7 3.7 2.3 1.6 1.6 2.6 4t1 5.7q0 3.3-1 5.8-1 2.6-2.6 4.3-1.6 1.7-3.7 2.6-2.1 1-4.4 1-2.3 0-4.4-1-2.1-.8-3.7-2.4-1.6-1.7-2.6-4.2-1-2.4-1-5.7zm15.4-.3l-.1-3.8q-.2-2-.6-3.4-.4-1.4-1.1-2.3-.8-.9-2-.9t-2 1q-.7.9-1.1 2.4-.4 1.5-.6 3.4v7.9q.2 1.8.6 3.3.4 1.5 1.1 2.5.8.9 2 .9t2-1q.7-1 1.1-2.5.4-1.6.6-3.5l.1-4zm-33.7-8.1q1-1.4 2.1-2.4l1-1 1.3-.7 1.4-.5 1.6-.2q1.6 0 3 .6 1.3.7 2.2 2.2.9 1.6 1.4 4 .4 2.6.4 6.3 0 3.7-.6 6.3-.7 2.7-1.7 4.6-1 1.9-2.4 3-1.3 1.3-2.7 2-1.3.6-2.6.9-1.2.3-2.1.3l-.3-1q1.1-.3 2-1 .9-.8 1.5-2.5.6-1.8.9-4.7.3-2.9.3-7.5 0-3.1-.3-5-.3-2-.7-2.9-.5-1-1-1.3-.7-.3-1.3-.3-.7 0-1.2.4-.6.4-1 .9l-.7 1-.5.7v16.8l-.1.8q-.1.4-.5.8t-1.2.7q-.7.3-2 .3-1.4 0-2.1-.3-.8-.3-1.2-.7-.4-.5-.5-1v-33q0-.7-.4-1.2-.4-.6-1.2-.6-.4 0-.7.2-.3 0-.7.4l-.5-.6 1.3-1 1.5-.8 1.8-.6 2-.2q1.7 0 2.6.5.9.4 1.3 1 .4.7.5 1.4l.1 1.2zm-57.2 9.7l.2 1.8.7 1.8 1.1 1.9q.7.8 1.6 1.5.8.7 1.9 1 1 .5 2.3.5.9 0 1.6-.2.8-.2 1.4-.6.7-.3 1.3-.8l1.2-1 .6.6q-.5.8-1.5 1.7-.9 1-2.1 1.8-1.3.8-3 1.3-1.7.6-3.9.6t-4.3-.8q-2-.8-3.6-2.4-1.6-1.6-2.6-4-1-2.3-1-5.4 0-2.3.6-4.2.6-2 1.6-3.5t2.3-2.6q1.3-1.2 2.8-2 1.4-.7 3-1.1 1.4-.4 2.9-.4 1.8 0 3.2.4 1.4.4 2.3 1 .9.7 1.3 1.6.5 1 .5 1.9 0 1.2-.7 2.1-.7 1-1.8 1.7zm5-5l.6-.5.3-.4q.2-.3.2-.7v-1-1.3l-.5-1.5q-.3-.6-.8-1.1-.6-.5-1.3-.5-.9 0-1.5.6-.6.5-1 1.4-.5.8-.7 2l-.4 2.1-.1 2.1v1.8zm-17.5 14.3l-.1.8q-.1.4-.5.8t-1.2.7q-.8.3-2.1.3-1.4 0-2.1-.3-.8-.3-1.1-.7-.4-.5-.5-1v-33q0-.7-.4-1.2-.3-.6-1.2-.6-.4 0-.7.2-.3 0-.7.4l-.5-.6 1.3-1 1.6-.8 1.8-.6 2-.2q1.6 0 2.5.5.9.4 1.3 1 .5.7.5 1.4l.1 1.2zm-20.3-35q-.7 0-1.3.2-.7.3-1.1 1-.5.7-.8 1.7-.2 1-.2 2.5v6.1h5.5v1.8H86V35q0 3.4-1 6.3-.8 2.9-2.6 5-1.8 2-4.5 3.3-2.7 1.1-6.4 1.1l-2.4-.2q-1.2-.2-2-.6-1-.3-1.5-.9-.6-.5-.6-1.1l.2-1q0-.4.3-.8l.7-.6q.3-.2.8-.2.3 0 .5.3l.4.6.5 1 .8.8 1 .7q.7.3 1.7.3 1.3 0 2.3-.6 1-.5 1.6-1.4.7-.9 1.2-2 .5-1.3.8-2.7l.3-3 .2-3v-21h-4.6v-1.9h4.6v-2.9q0-2.2.5-3.8.5-1.7 1.4-2.8 1-1.2 2-2l2.3-1Q85.8.2 87 .1l2-.2q1.7 0 3.1.3 1.4.2 2.3.7 1 .4 1.4 1 .5.6.5 1.2L96 4q0 .4-.3.8l-.7.7q-.3.2-.8.2-.2 0-.5-.3l-.4-.8-.6-1-.7-1-1-.7q-.7-.3-1.5-.3zm-21.8 0q-.7 0-1.3.2-.6.3-1.1 1-.4.7-.7 1.7-.3 1-.3 2.5v6.1h5.5v1.8h-5.5V35q0 3.4-.9 6.3t-2.7 5q-1.8 2-4.5 3.3-2.7 1.1-6.3 1.1-1.3 0-2.5-.2t-2-.6q-1-.3-1.5-.9-.5-.5-.5-1.1v-1l.5-.8.6-.6q.3-.2.8-.2.3 0 .5.3l.4.6.6 1q.2.4.7.8l1.1.7q.7.3 1.6.3 1.3 0 2.3-.6 1-.5 1.7-1.4.7-.9 1.1-2 .5-1.3.8-2.7.3-1.4.4-3l.1-3v-21H52v-1.9h4.6v-2.9q0-2.2.5-3.8.6-1.7 1.5-2.8.9-1.2 2-2 1.1-.6 2.3-1Q64 .2 65.2.1L67 0q1.8 0 3.1.3 1.4.2 2.4.7.9.4 1.4 1 .4.6.4 1.2l-.1.9-.4.8q-.2.4-.6.7l-.8.2q-.3 0-.5-.3l-.5-.8-.6-1-.7-1-1-.7q-.6-.3-1.5-.3zM36.1 26q0-.6-.4-1-.4-.2-1-.2-1 0-1.7.4-.8.4-1.4 1.1-.6.8-1 2-.3 1-.3 2.6 0 1.4.2 2.4t.6 1.5q.3.6.8.8l1 .2q.7 0 1.2-.3.6-.3 1-.9.5-.5.7-1.1.3-.7.3-1.4zm-4-11q-.9 0-1.6.2l-1.3.5q-.5.3-.8.7-.3.4-.3.7 0 .4.4.6l.9.3.8.6q.4.4.4 1.2l-.2 1-.6.8-.8.5-1 .2q-1.4 0-2.3-1-.9-1-.9-2.5t.8-2.6q.8-1.1 2.1-1.8t3-1q1.6-.4 3.2-.4 2 0 3.7.4 1.8.4 3.2 1.4 1.4.9 2.2 2.3.8 1.5.8 3.5v14.7l.1.5.3.3q.2.2.6.2.5 0 .8-.3l.7-.7.7.5-1 1.1q-.5.7-1.2 1.2-.8.6-1.8 1-1 .3-2.2.3-1.6 0-2.9-1-1.2-.9-1.6-2.8l-1.6 1.8-1.8 1.2-1.8.6-1.9.2q-1.2 0-2.3-.4-1.1-.3-2-1.1-.9-.9-1.4-2.2-.6-1.3-.6-3.2 0-2.2 1-3.7.8-1.4 2.3-2.4 1.5-1 3.3-1.7l3.9-1.5q1.4-.6 2-1.7.7-1.2.7-2.4 0-1.8-1-3-1.1-1-3-1zm-21 3.3l2-2.7 1-1 1-.8 1.2-.6 1.3-.2q1.2 0 2 .8.7.7.7 2.1 0 .9-.2 1.7 0 .7-.5 1.9H19q-.1-.8-.7-1.3-.5-.5-1.6-.5-.8 0-1.5.3-.8.2-1.5.7l-1.4.9-1.1 1v16.2l-.1.8q-.1.4-.5.8t-1.2.7q-.7.3-2 .3-1.4 0-2.2-.3-.7-.3-1.1-.7-.4-.5-.5-1l-.1-.6V17.4q0-.7-.4-1.3-.3-.5-1-.5l-.8.1-.7.5-.5-.7 1.3-.9q.7-.5 1.5-.8l1.8-.6 2-.2q1.1 0 1.9.3l1.2.7.8 1 .4 1.2.2 1.2v.9zM155 4h-5.4c-.3 0-.6.3-.6.6V6h-6.7-.1l-3.4.7c-.3 0-.5.4-.5.7v9.2c0 .3.3.6.6.7l3.3.7h6.8v17.3c0 .3.3.6.7.6v1.4c0 .3.3.6.7.6h.7l-.3 1c-.3 1-.4 2-.4 3 0 .8.1 1.5.5 2.2 0 .3.2.5.4.7.3.3.7.4 1.1.5.7-.1 1.3-.5 1.5-1.2a5 5 0 0 0 .5-2.2c0-1.3-.3-2.7-.7-4h.7c.3 0 .6-.3.6-.6v-1.4c.4 0 .7-.3.7-.6V17.9h6.8l3.3-.7c.3 0 .5-.4.5-.7V7.3c0-.3-.2-.6-.5-.6l-3.4-.8h-6.8V4.7c0-.4-.3-.6-.6-.6zm-.7 1.3V6h-4v-.7zm7.3 2v9.3H143V7.3zm1.4.1l2 .4V16l-2 .4zm-21.4 0v9l-2-.3V7.9zM153.4 18l-3 3.1v-3zm1 4.7v2l-4 4v-2zm0 7.6v4.4h-4v-.4zm-.7 5.7v.7H151v-.7zm-1.3 2.3c.4 1.2.6 2.5.7 3.7 0 .6-.1 1.1-.4 1.6l-.3.4s-.2 0-.4-.4c-.2-.5-.3-1-.3-1.6 0-1.2.3-2.5.7-3.7z"
    />
</svg>